# xmcd
# Copyright (C) 1995-1998 Ti Kan
#
# Track frame offsets:
#       150
#       15194
#       24811
#       35670
#       46182
#       62413
#       71454
#       89527
#       107853
#       116679
#       128228
#       138382
#       149841
#       162138
#       186255
#       202872
#       212477
#       220466
#       226702
#       242242
#       252216
#       268373
#       281646
#
# Disc length: 3898 seconds
#
# Revision: 0
# Processed by: cddbd v1.5.2PL0 Copyright (c) Steve Scherf et al.
# Submitted via: CD-Transfer v1.0
#
DISCID=500f3817
DTITLE=Liquid Liquid - Liquid Liquid
DYEAR=08
DGENRE=
TTITLE0=Groupmegroup
TTITLE1=New Walk (Live)
TTITLE2=Lub Dupe
TTITLE3=Bellhead (Live)
TTITLE4=Rubbermiro
TTITLE5=Spearbox
TTITLE6=Lock Grove (In)
TTITLE7=Lock Groove (Out)
TTITLE8=Push
TTITLE9=Zero Leg
TTITLE10=Eyes Sharp
TTITLE11=Where's Al (Live)
TTITLE12=Optimo
TTITLE13=Cavern
TTITLE14=Scraper
TTITLE15=Out
TTITLE16=Sank Into The Chair
TTITLE17=Outer
TTITLE18=Groupmegroup (Live)
TTITLE19=Sank Into The Chair (Live)
TTITLE20=Elephant Walk (Live)
TTITLE21=Setmeonmyown (Live)
TTITLE22=Not Again (Live)
EXTD=
EXTT0=
EXTT1=
EXTT2=
EXTT3=
EXTT4=
EXTT5=
EXTT6=
EXTT7=
EXTT8=
EXTT9=
EXTT10=
EXTT11=
EXTT12=
EXTT13=
EXTT14=
EXTT15=
EXTT16=
EXTT17=
EXTT18=
EXTT19=
EXTT20=
EXTT21=
EXTT22=
PLAYORDER=
